<svg width="256" height="256" viewBox="-1.6 -1.6 19.2 19.2" xmlns="http://www.w3.org/2000/svg"><rect x="-1.6" y="-1.6" width="19.2" height="19.2" rx="2.5" ry="2.5" fill="#2fbff7"/><path d="M12 0a2 2 0 1 0 2 2 2 2 0 0 0-2-2M4 2a2 2 0 1 0 2 2 2 2 0 0 0-2-2m7 3a3 3 0 0 0-2.832 2h7.664A3 3 0 0 0 13 5zM3 7c-1.66 0-3 1.34-3 3 0 .555.445 1 1 1h6c.555 0 1-.445 1-1 0-1.66-1.34-3-3-3zm9 1a1 1 0 0 0-.707.293l-2 2a1 1 0 0 0-.285.707H9v1h2v1c-.105.8-.5 1-1 1H6c-1 0-1-1-1-1 0-.55-.45-1-1-1s-1 .45-1 1c0 1.332.813 2.273 1.55 2.645C5.294 16.015 6 16 6 16h4s.707.016 1.45-.355C12.187 15.273 13 14.332 13 13v-1h2v-1h-.008a1 1 0 0 0-.285-.707l-2-2A1 1 0 0 0 12 8m0 0" fill="#e8f9ff"/></svg>